<?xml version="1.0" encoding="utf-8"?>
<svg xmlns="http://www.w3.org/2000/svg" style="margin: auto; background: rgb(241, 242, 243); display: block; shape-rendering: auto; animation-play-state: running; animation-delay: 0s;" width="280" height="250" preserveAspectRatio="xMidYMid">
<style type="text/css" style="animation-play-state: running; animation-delay: 0s;">
  text {
    text-anchor: middle; font-size: 102px; opacity: 0;
  }
</style>
<g style="transform-origin: 140px 125px; transform: scale(1.275); animation-play-state: running; animation-delay: 0s;">
<g transform="translate(140,125)" style="animation-play-state: running; animation-delay: 0s;">
  <g transform="translate(-5,0)" style="animation-play-state: running; animation-delay: 0s;"><g class="path" style="transform: scale(0.91); transform-origin: -82.76px -6.35954px; animation: 1s linear -0.565714s infinite normal forwards running breath-ce075b19-53a3-4057-b133-61c061eef37f;"><path d="M2.40-4.72L6.24-11.12L6.24-11.12Q9.12-8.72 12.72-7.20L12.72-7.20L12.72-7.20Q16.32-5.68 21.12-5.68L21.12-5.68L21.12-5.68Q26.88-5.68 30.24-8.08L30.24-8.08L30.24-8.08Q33.60-10.48 33.60-14.56L33.60-14.56L33.60-14.56Q33.60-16.24 33.12-17.68L33.12-17.68L33.12-17.68Q32.64-19.12 31.24-20.44L31.24-20.44L31.24-20.44Q29.84-21.76 27.32-23.08L27.32-23.08L27.32-23.08Q24.80-24.40 20.80-25.92L20.80-25.92L20.80-25.92Q16.48-27.60 13.48-29.24L13.48-29.24L13.48-29.24Q10.48-30.88 8.64-32.84L8.64-32.84L8.64-32.84Q6.80-34.80 6-37.16L6-37.16L6-37.16Q5.20-39.52 5.20-42.56L5.20-42.56L5.20-42.56Q5.20-45.52 6.44-48.16L6.44-48.16L6.44-48.16Q7.68-50.80 10.12-52.76L10.12-52.76L10.12-52.76Q12.56-54.72 16.12-55.84L16.12-55.84L16.12-55.84Q19.68-56.96 24.24-56.96L24.24-56.96L24.24-56.96Q29.20-56.96 33.12-55.96L33.12-55.96L33.12-55.96Q37.04-54.96 40.88-53.12L40.88-53.12L38.08-46.64L38.08-46.64Q35.36-48.24 31.72-49.32L31.72-49.32L31.72-49.32Q28.08-50.40 24.08-50.40L24.08-50.40L24.08-50.40Q18.80-50.40 15.76-48.36L15.76-48.36L15.76-48.36Q12.72-46.32 12.72-42.96L12.72-42.96L12.72-42.96Q12.72-41.36 13.16-40.12L13.16-40.12L13.16-40.12Q13.60-38.88 14.92-37.72L14.92-37.72L14.92-37.72Q16.24-36.56 18.60-35.36L18.60-35.36L18.60-35.36Q20.96-34.16 24.88-32.72L24.88-32.72L24.88-32.72Q29.52-30.96 32.72-29.12L32.72-29.12L32.72-29.12Q35.92-27.28 37.84-25.20L37.84-25.20L37.84-25.20Q39.76-23.12 40.60-20.72L40.60-20.72L40.60-20.72Q41.44-18.32 41.44-15.44L41.44-15.44L41.44-15.44Q41.44-11.52 39.92-8.48L39.92-8.48L39.92-8.48Q38.40-5.44 35.72-3.32L35.72-3.32L35.72-3.32Q33.04-1.20 29.28-0.12L29.28-0.12L29.28-0.12Q25.52 0.96 21.12 0.96L21.12 0.96L21.12 0.96Q15.28 0.96 10.48-0.60L10.48-0.60L10.48-0.60Q5.68-2.16 2.40-4.72L2.40-4.72" fill="#4e5f78" stroke="none" stroke-width="none" transform="translate(-104.67999267578125,21.640455453055257)" style="fill: rgb(78, 95, 120); animation-play-state: running; animation-delay: 0s;"></path></g><g class="path" style="transform: scale(0.91); transform-origin: -49.24px 0.840456px; animation: 1s linear -0.471429s infinite normal forwards running breath-ce075b19-53a3-4057-b133-61c061eef37f;"><path d="M59.04-41.60L59.04 0L51.84 0L51.84-41.60L59.04-41.60" fill="#4e5f78" stroke="none" stroke-width="none" transform="translate(-104.67999267578125,21.640455453055257)" style="fill: rgb(92, 103, 188); animation-play-state: running; animation-delay: 0s;"></path></g><g class="path" style="transform: scale(0.91); transform-origin: -49.24px -32.1195px; animation: 1s linear -0.377143s infinite normal forwards running breath-ce075b19-53a3-4057-b133-61c061eef37f;"><path d="M55.44-48.72L55.44-48.72L55.44-48.72Q53.36-48.72 51.88-50.20L51.88-50.20L51.88-50.20Q50.40-51.68 50.40-53.76L50.40-53.76L50.40-53.76Q50.40-56.08 51.76-57.44L51.76-57.44L51.76-57.44Q53.12-58.80 55.44-58.80L55.44-58.80L55.44-58.80Q57.52-58.80 59-57.32L59-57.32L59-57.32Q60.48-55.84 60.48-53.76L60.48-53.76L60.48-53.76Q60.48-51.44 59.12-50.08L59.12-50.08L59.12-50.08Q57.76-48.72 55.44-48.72" fill="#4e5f78" stroke="none" stroke-width="none" transform="translate(-104.67999267578125,21.640455453055257)" style="fill: rgb(41, 170, 149); animation-play-state: running; animation-delay: 0s;"></path></g><g class="path" style="transform: scale(0.91); transform-origin: -12.88px -6.35954px; animation: 1s linear -0.282857s infinite normal forwards running breath-ce075b19-53a3-4057-b133-61c061eef37f;"><path d="M95.36-23.68L95.36-29.68L114.16-29.68L114.16 0L107.44 0L107.44-5.60L107.44-5.60Q104.64-3.12 100.64-1.08L100.64-1.08L100.64-1.08Q96.64 0.96 91.76 0.96L91.76 0.96L91.76 0.96Q86.88 0.96 82.80-0.96L82.80-0.96L82.80-0.96Q78.72-2.88 75.76-6.48L75.76-6.48L75.76-6.48Q72.80-10.08 71.12-15.16L71.12-15.16L71.12-15.16Q69.44-20.24 69.44-26.56L69.44-26.56L69.44-26.56Q69.44-33.28 71.16-38.84L71.16-38.84L71.16-38.84Q72.88-44.40 76.16-48.44L76.16-48.44L76.16-48.44Q79.44-52.48 84.20-54.72L84.20-54.72L84.20-54.72Q88.96-56.96 95.04-56.96L95.04-56.96L95.04-56.96Q100.32-56.96 104.36-55.68L104.36-55.68L104.36-55.68Q108.40-54.40 112-52.40L112-52.40L109.20-46.08L109.20-46.08Q105.84-47.92 102.40-49.12L102.40-49.12L102.40-49.12Q98.96-50.32 94.64-50.32L94.64-50.32L94.64-50.32Q90.88-50.32 87.68-48.80L87.68-48.80L87.68-48.80Q84.48-47.28 82.16-44.32L82.16-44.32L82.16-44.32Q79.84-41.36 78.52-37L78.52-37L78.52-37Q77.20-32.64 77.20-27.04L77.20-27.04L77.20-27.04Q77.20-22 78.40-18.04L78.40-18.04L78.40-18.04Q79.60-14.08 81.76-11.32L81.76-11.32L81.76-11.32Q83.92-8.56 86.92-7.12L86.92-7.12L86.92-7.12Q89.92-5.68 93.52-5.68L93.52-5.68L93.52-5.68Q95.76-5.68 97.76-6.20L97.76-6.20L97.76-6.20Q99.76-6.72 101.44-7.56L101.44-7.56L101.44-7.56Q103.12-8.40 104.52-9.40L104.52-9.40L104.52-9.40Q105.92-10.40 106.96-11.44L106.96-11.44L106.96-23.68L95.36-23.68" fill="#4e5f78" stroke="none" stroke-width="none" transform="translate(-104.67999267578125,21.640455453055257)" style="fill: rgb(78, 95, 119); animation-play-state: running; animation-delay: 0s;"></path></g><g class="path" style="transform: scale(0.91); transform-origin: 41.4px -5.95954px; animation: 1s linear -0.188571s infinite normal forwards running breath-ce075b19-53a3-4057-b133-61c061eef37f;"><path d="M126.64 0.64L120.16-2L142.08-56L150.40-56L172-2L165.04 0.80L158.80-15.20L132.88-15.20L126.64 0.64zM145.84-48.48L135.28-21.60L156.32-21.60L145.84-48.48" fill="#4e5f78" stroke="none" stroke-width="none" transform="translate(-104.67999267578125,21.640455453055257)" style="fill: rgb(78, 95, 119); animation-play-state: running; animation-delay: 0s;"></path></g><g class="path" style="transform: scale(0.91); transform-origin: 92.12px -6.35954px; animation: 1s linear -0.0942857s infinite normal forwards running breath-ce075b19-53a3-4057-b133-61c061eef37f;"><path d="M180 0L180-56L213.60-56L213.60-49.44L187.60-49.44L187.60-32.40L210-32.40L210-26L187.60-26L187.60-6.56L213.60-6.56L213.60 0L180 0" fill="#4e5f78" stroke="none" stroke-width="none" transform="translate(-104.67999267578125,21.640455453055257)" style="fill: rgb(78, 95, 120); animation-play-state: running; animation-delay: 0s;"></path></g><g class="path" style="transform: scale(0.91); transform-origin: 92.8px -44.0395px; animation: 1s linear 0s infinite normal forwards running breath-ce075b19-53a3-4057-b133-61c061eef37f;"><path d="M197.52-66.96L186.64-59.36L183.20-65.60L194.96-72L200.08-72L211.76-65.60L208.32-59.36L197.52-66.96" fill="#4e5f78" stroke="none" stroke-width="none" transform="translate(-104.67999267578125,21.640455453055257)" style="fill: rgb(92, 103, 188); animation-play-state: running; animation-delay: 0s;"></path></g></g>
</g>
</g>
<style id="breath-ce075b19-53a3-4057-b133-61c061eef37f" data-anikit="">@keyframes breath-ce075b19-53a3-4057-b133-61c061eef37f
{
  0% {
    animation-timing-function: cubic-bezier(0.9647,0.2413,-0.0705,0.7911);
    transform: scale(0.9099999999999999);
  }
  51% {
    animation-timing-function: cubic-bezier(0.9226,0.2631,-0.0308,0.7628);
    transform: scale(1.02994);
  }
  100% {
    transform: scale(0.9099999999999999);
  }
}</style></svg>