<svg xmlns="http://www.w3.org/2000/svg" style="margin: auto; background: transparent; display: block; shape-rendering: auto; animation-play-state: running; animation-delay: 0s;" width="280" height="120" preserveAspectRatio="xMidYMid"><rect id="backgroundrect" width="100%" height="100%" x="0" y="0" fill="none" stroke="none"/>
<style type="text/css" style="animation-play-state: running; animation-delay: 0s;">
  text {
    text-anchor: middle; font-size: 102px; opacity: 0;
  }
</style>

<g class="currentLayer" style=""><title>Layer 1</title><g style="transform-origin: 140px 125px; transform: scale(1.275); animation-play-state: running; animation-delay: 0s;" id="svg_1" class="">
<g style="animation-play-state: running; animation-delay: 0s;" id="svg_2">
  <g style="animation-play-state: running; animation-delay: 0s;" id="svg_3"><g class="path" style="transform: scale(0.91); transform-origin: -82.76px -6.35954px; animation: 1s linear -0.565714s infinite normal forwards running breath-ce075b19-53a3-4057-b133-61c061eef37f;" id="svg_4"><path d="M45.598901159246864,110.65300664792181 L49.49752878375858,104.15529394040227 L49.49752878375858,104.15529394040227 Q52.42149950214237,106.5919362057221 56.076462900122095,108.135142973758 L56.076462900122095,108.135142973758 L56.076462900122095,108.135142973758 Q59.73142629810183,109.67834974179387 64.60471082874149,109.67834974179387 L64.60471082874149,109.67834974179387 L64.60471082874149,109.67834974179387 Q70.45265226550906,109.67834974179387 73.86395143695682,107.24170747647406 L73.86395143695682,107.24170747647406 L73.86395143695682,107.24170747647406 Q77.27525060840456,104.80506521115423 77.27525060840456,100.66277336011052 L77.27525060840456,100.66277336011052 L77.27525060840456,100.66277336011052 Q77.27525060840456,98.95712377438666 76.78792215534061,97.49513841519475 L76.78792215534061,97.49513841519475 L76.78792215534061,97.49513841519475 Q76.30059370227663,96.03315305600286 74.87921904750675,94.69299981007697 L74.87921904750675,94.69299981007697 L74.87921904750675,94.69299981007697 Q73.45784439273685,93.35284656415105 70.89937001415102,92.01269331822516 L70.89937001415102,92.01269331822516 L70.89937001415102,92.01269331822516 Q68.34089563556523,90.67254007229924 64.27982519336553,89.12933330426335 L64.27982519336553,89.12933330426335 L64.27982519336553,89.12933330426335 Q59.89386911578981,87.4236837185395 56.84806628414003,85.75864483723761 L56.84806628414003,85.75864483723761 L56.84806628414003,85.75864483723761 Q53.80226345249025,84.09360595593573 51.93417104907839,82.10368143925787 L51.93417104907839,82.10368143925787 L51.93417104907839,82.10368143925787 Q50.06607864566654,80.11375692258001 49.25386455722659,77.71772536168218 L49.25386455722659,77.71772536168218 L49.25386455722659,77.71772536168218 Q48.44165046878664,75.32169380078435 48.44165046878664,72.23528026471257 L48.44165046878664,72.23528026471257 L48.44165046878664,72.23528026471257 Q48.44165046878664,69.23008813748478 49.70058230586856,66.54978164563299 L49.70058230586856,66.54978164563299 L49.70058230586856,66.54978164563299 Q50.959514142950475,63.86947515378118 53.436767112692294,61.879550637103335 L53.436767112692294,61.879550637103335 L53.436767112692294,61.879550637103335 Q55.914020082434114,59.889626120425476 59.528372775991855,58.752526396609554 L59.528372775991855,58.752526396609554 L59.528372775991855,58.752526396609554 Q63.1427254695496,57.615426672793625 67.77234577365726,57.615426672793625 L67.77234577365726,57.615426672793625 L67.77234577365726,57.615426672793625 Q72.80807312198488,57.615426672793625 76.78792215534061,58.63069428334355 L76.78792215534061,58.63069428334355 L76.78792215534061,58.63069428334355 Q80.76777118869632,59.64596189389348 84.66639881320803,61.51405429730535 L84.66639881320803,61.51405429730535 L81.82364950366822,68.09298841366888 L81.82364950366822,68.09298841366888 Q79.06212160297245,66.46856023678899 75.3665475005707,65.37207121739509 L75.3665475005707,65.37207121739509 L75.3665475005707,65.37207121739509 Q71.67097339816895,64.27558219800115 67.60990295596925,64.27558219800115 L67.60990295596925,64.27558219800115 L67.60990295596925,64.27558219800115 Q62.24928997226567,64.27558219800115 59.16287643619387,66.34672812352301 L59.16287643619387,66.34672812352301 L59.16287643619387,66.34672812352301 Q56.076462900122095,68.41787404904487 56.076462900122095,71.8291732204926 L56.076462900122095,71.8291732204926 L56.076462900122095,71.8291732204926 Q56.076462900122095,73.4536013973725 56.52318064876406,74.7125332344544 L56.52318064876406,74.7125332344544 L56.52318064876406,74.7125332344544 Q56.96989839740603,75.97146507153631 58.310051643331924,77.14917549977423 L58.310051643331924,77.14917549977423 L58.310051643331924,77.14917549977423 Q59.65020488925785,78.32688592801213 62.04623645015566,79.54520706067206 L62.04623645015566,79.54520706067206 L62.04623645015566,79.54520706067206 Q64.4422680110535,80.76352819333196 68.4221170444092,82.22551355252386 L68.4221170444092,82.22551355252386 L68.4221170444092,82.22551355252386 Q73.13295875736088,84.01238454709173 76.38181511112063,85.88047695050359 L76.38181511112063,85.88047695050359 L76.38181511112063,85.88047695050359 Q79.63067146488042,87.74856935391546 81.57998527713626,89.86032598385931 L81.57998527713626,89.86032598385931 L81.57998527713626,89.86032598385931 Q83.52929908939211,91.97208261380315 84.38212388225405,94.40872487912299 L84.38212388225405,94.40872487912299 L84.38212388225405,94.40872487912299 Q85.23494867511599,96.84536714444282 85.23494867511599,99.7693378628266 L85.23494867511599,99.7693378628266 L85.23494867511599,99.7693378628266 Q85.23494867511599,103.74918689618231 83.69174190708013,106.83560043225408 L83.69174190708013,106.83560043225408 L83.69174190708013,106.83560043225408 Q82.14853513904423,109.92201396832587 79.42761794277041,112.07438130269172 L79.42761794277041,112.07438130269172 L79.42761794277041,112.07438130269172 Q76.70670074649661,114.22674863705755 72.88929453082889,115.32323765645147 L72.88929453082889,115.32323765645147 L72.88929453082889,115.32323765645147 Q69.07188831516117,116.41972667584538 64.60471082874149,116.41972667584538 L64.60471082874149,116.41972667584538 L64.60471082874149,116.41972667584538 Q58.67554798312992,116.41972667584538 53.80226345249025,114.83590920338752 L53.80226345249025,114.83590920338752 L53.80226345249025,114.83590920338752 Q48.92897892185062,113.25209173092962 45.598901159246864,110.65300664792181 L45.598901159246864,110.65300664792181 " fill="#4e5f78" stroke="none" stroke-width="none" style="fill: rgb(78, 95, 120); animation-play-state: running; animation-delay: 0s;" id="svg_5"/></g><g class="path" style="transform: scale(0.91); transform-origin: -49.24px 0.840456px; animation: 1s linear -0.471429s infinite normal forwards running breath-ce075b19-53a3-4057-b133-61c061eef37f;" id="svg_6"><path d="M103.1036586207947,73.20993717084052 L103.1036586207947,115.44506976971746 L95.79373182483523,115.44506976971746 L95.79373182483523,73.20993717084052 L103.1036586207947,73.20993717084052 " fill="#4e5f78" stroke="none" stroke-width="none" style="fill: rgb(92, 103, 188); animation-play-state: running; animation-delay: 0s;" id="svg_7"/></g><g class="path" style="transform: scale(0.91); transform-origin: -49.24px -32.1195px; animation: 1s linear -0.377143s infinite normal forwards running breath-ce075b19-53a3-4057-b133-61c061eef37f;" id="svg_8"><path d="M99.44869522281496,65.98123178372504 L99.44869522281496,65.98123178372504 L99.44869522281496,65.98123178372504 Q97.33693859287114,65.98123178372504 95.83434252925723,64.47863572011114 L95.83434252925723,64.47863572011114 L95.83434252925723,64.47863572011114 Q94.33174646564335,62.976039656497235 94.33174646564335,60.86428302655341 L94.33174646564335,60.86428302655341 L94.33174646564335,60.86428302655341 Q94.33174646564335,58.50886217007757 95.71251041599123,57.12809821972967 L95.71251041599123,57.12809821972967 L95.71251041599123,57.12809821972967 Q97.09327436633914,55.747334269381774 99.44869522281496,55.747334269381774 L99.44869522281496,55.747334269381774 L99.44869522281496,55.747334269381774 Q101.56045185275883,55.747334269381774 103.06304791637271,57.24993033299567 L103.06304791637271,57.24993033299567 L103.06304791637271,57.24993033299567 Q104.56564397998659,58.752526396609554 104.56564397998659,60.86428302655341 L104.56564397998659,60.86428302655341 L104.56564397998659,60.86428302655341 Q104.56564397998659,63.21970388302924 103.1848800296387,64.60046783337714 L103.1848800296387,64.60046783337714 L103.1848800296387,64.60046783337714 Q101.8041160792908,65.98123178372504 99.44869522281496,65.98123178372504 " fill="#4e5f78" stroke="none" stroke-width="none" style="fill: rgb(41, 170, 149); animation-play-state: running; animation-delay: 0s;" id="svg_9"/></g><g class="path" style="transform: scale(0.91); transform-origin: -12.88px -6.35954px; animation: 1s linear -0.282857s infinite normal forwards running breath-ce075b19-53a3-4057-b133-61c061eef37f;" id="svg_10"><path d="M139.97817823596807,91.40353275189518 L139.97817823596807,85.31192708859562 L159.06520931430666,85.31192708859562 L159.06520931430666,115.44506976971746 L152.24261097141115,115.44506976971746 L152.24261097141115,109.75957115063788 L152.24261097141115,109.75957115063788 Q149.39986166187134,112.27743482480169 145.33879121967163,114.34858075032355 L145.33879121967163,114.34858075032355 L145.33879121967163,114.34858075032355 Q141.27772077747193,116.41972667584538 136.3232148379883,116.41972667584538 L136.3232148379883,116.41972667584538 L136.3232148379883,116.41972667584538 Q131.36870889850465,116.41972667584538 127.22641704746098,114.47041286358954 L127.22641704746098,114.47041286358954 L127.22641704746098,114.47041286358954 Q123.08412519641726,112.52109905133368 120.07893306918947,108.86613565335394 L120.07893306918947,108.86613565335394 L120.07893306918947,108.86613565335394 Q117.07374094196172,105.21117225537421 115.36809135623783,100.05361279378057 L115.36809135623783,100.05361279378057 L115.36809135623783,100.05361279378057 Q113.66244177051394,94.89605333218695 113.66244177051394,88.4795620335114 L113.66244177051394,88.4795620335114 L113.66244177051394,88.4795620335114 Q113.66244177051394,81.6569636906159 115.40870206065982,76.01207577595831 L115.40870206065982,76.01207577595831 L115.40870206065982,76.01207577595831 Q117.15496235080569,70.3671878613007 120.48504011340945,66.26550671467902 L120.48504011340945,66.26550671467902 L120.48504011340945,66.26550671467902 Q123.8151178760132,62.16382556805732 128.64779170223085,59.889626120425476 L128.64779170223085,59.889626120425476 L128.64779170223085,59.889626120425476 Q133.4804655284485,57.615426672793625 139.6532926005921,57.615426672793625 L139.6532926005921,57.615426672793625 L139.6532926005921,57.615426672793625 Q145.01390558429569,57.615426672793625 149.1155867309174,58.914969214297535 L149.1155867309174,58.914969214297535 L149.1155867309174,58.914969214297535 Q153.2172678775391,60.21451175580144 156.87223127551883,62.24504697690129 L156.87223127551883,62.24504697690129 L154.02948196597902,68.66153827557685 L154.02948196597902,68.66153827557685 Q150.6181827945313,66.79344587216497 147.12566221423953,65.57512473950506 L147.12566221423953,65.57512473950506 L147.12566221423953,65.57512473950506 Q143.63314163394776,64.35680360684516 139.24718555637207,64.35680360684516 L139.24718555637207,64.35680360684516 L139.24718555637207,64.35680360684516 Q135.42977934070436,64.35680360684516 132.1809229869446,65.90001037488103 L132.1809229869446,65.90001037488103 L132.1809229869446,65.90001037488103 Q128.93206663318486,67.44321714291692 126.576645776709,70.44840927014472 L126.576645776709,70.44840927014472 L126.576645776709,70.44840927014472 Q124.22122492023318,73.4536013973725 122.88107167430726,77.88016817937017 L122.88107167430726,77.88016817937017 L122.88107167430726,77.88016817937017 Q121.54091842838136,82.30673496136785 121.54091842838136,87.99223358044745 L121.54091842838136,87.99223358044745 L121.54091842838136,87.99223358044745 Q121.54091842838136,93.10918233761907 122.7592395610413,97.12964207539679 L122.7592395610413,97.12964207539679 L122.7592395610413,97.12964207539679 Q123.9775606937012,101.1501018131745 126.17053873248904,103.9522404182923 L126.17053873248904,103.9522404182923 L126.17053873248904,103.9522404182923 Q128.3635167712769,106.75437902341008 131.40931960292667,108.21636438260198 L131.40931960292667,108.21636438260198 L131.40931960292667,108.21636438260198 Q134.45512243457645,109.67834974179387 138.11008583255617,109.67834974179387 L138.11008583255617,109.67834974179387 L138.11008583255617,109.67834974179387 Q140.384285280188,109.67834974179387 142.41482050128786,109.15041058430792 L142.41482050128786,109.15041058430792 L142.41482050128786,109.15041058430792 Q144.44535572238772,108.62247142682196 146.1510053081116,107.76964663396001 L146.1510053081116,107.76964663396001 L146.1510053081116,107.76964663396001 Q147.8566548938355,106.91682184109807 149.27802954860536,105.90155423054814 L149.27802954860536,105.90155423054814 L149.27802954860536,105.90155423054814 Q150.69940420337528,104.88628661999822 151.75528251834717,103.83040830502631 L151.75528251834717,103.83040830502631 L151.75528251834717,91.40353275189518 L139.97817823596807,91.40353275189518 " fill="#4e5f78" stroke="none" stroke-width="none" style="fill: rgb(78, 95, 119); animation-play-state: running; animation-delay: 0s;" id="svg_11"/></g><g class="path" style="transform: scale(0.91); transform-origin: 41.4px -5.95954px; animation: 1s linear -0.188571s infinite normal forwards running breath-ce075b19-53a3-4057-b133-61c061eef37f;" id="svg_12"><path d="M171.73574909396973,116.09484104046942 L165.1568149776062,113.41453454861761 L187.41148100086068,58.590083578921565 L195.85850752063598,58.590083578921565 L217.78828790851443,113.41453454861761 L210.7220253390869,116.25728385815741 L204.38675544925542,100.01300208935858 L178.07101898380128,100.01300208935858 L171.73574909396973,116.09484104046942 zM191.2288872165284,66.22489601025703 L180.5076612491211,93.51528938183905 L201.86889177509158,93.51528938183905 L191.2288872165284,66.22489601025703 " fill="#4e5f78" stroke="none" stroke-width="none" style="fill: rgb(78, 95, 119); animation-play-state: running; animation-delay: 0s;" id="svg_13"/></g><g class="path" style="transform: scale(0.91); transform-origin: 92.12px -6.35954px; animation: 1s linear -0.0942857s infinite normal forwards running breath-ce075b19-53a3-4057-b133-61c061eef37f;" id="svg_14"><path d="M225.91042879291385,115.44506976971746 L225.91042879291385,58.590083578921565 L260.0234205073914,58.590083578921565 L260.0234205073914,65.2502391041291 L233.62646263309333,65.2502391041291 L233.62646263309333,82.55039918789983 L256.3684571094117,82.55039918789983 L256.3684571094117,89.04811189541937 L233.62646263309333,89.04811189541937 L233.62646263309333,108.78491424450993 L260.0234205073914,108.78491424450993 L260.0234205073914,115.44506976971746 L225.91042879291385,115.44506976971746 " fill="#4e5f78" stroke="none" stroke-width="none" style="fill: rgb(78, 95, 120); animation-play-state: running; animation-delay: 0s;" id="svg_15"/></g><g class="path" style="transform: scale(0.91); transform-origin: 92.8px -44.0395px; animation: 1s linear 0s infinite normal forwards running breath-ce075b19-53a3-4057-b133-61c061eef37f;" id="svg_16"><path d="M243.69791732974855,47.46275056729437 L232.65180572696534,55.17878440747381 L229.1592851466736,48.84351451764228 L241.09883224674078,42.34580181012274 L246.29700241275643,42.34580181012274 L258.1553281039795,48.84351451764228 L254.66280752368777,55.17878440747381 L243.69791732974855,47.46275056729437 " fill="#4e5f78" stroke="none" stroke-width="none" style="fill: rgb(92, 103, 188); animation-play-state: running; animation-delay: 0s;" id="svg_17"/></g></g>
</g>
</g></g></svg>